<?xml version="1.0" encoding="UTF-8" standalone="no" ?>
<!DOCTYPE svg PUBLIC "-//W3C//DTD SVG 1.1//EN" "http://www.w3.org/Graphics/SVG/1.1/DTD/svg11.dtd">
<svg xmlns="http://www.w3.org/2000/svg" xmlns:xlink="http://www.w3.org/1999/xlink" version="1.1" width="1080" height="1080" viewBox="0 0 1080 1080" xml:space="preserve">
<desc>Created with Fabric.js 5.2.4</desc>
<defs>
</defs>
<rect x="0" y="0" width="100%" height="100%" fill="transparent"></rect>
<g transform="matrix(1 0 0 1 540 540)" id="641ea269-b5dd-4a3d-b818-ac5206350f3d"  >
</g>
<g transform="matrix(1 0 0 1 540 540)" id="97a6091d-c4db-4683-81cf-c0ece24ef42a"  >
<rect style="stroke: none; stroke-width: 1; stroke-dasharray: none; stroke-linecap: butt; stroke-dashoffset: 0; stroke-linejoin: miter; stroke-miterlimit: 4; fill: rgb(255,255,255); fill-rule: nonzero; opacity: 1; visibility: hidden;" vector-effect="non-scaling-stroke"  x="-540" y="-540" rx="0" ry="0" width="1080" height="1080" />
</g>
<g transform="matrix(9.13 0 0 9.13 184.13 251.01)"  >
<path style="stroke: none; stroke-width: 1; stroke-dasharray: none; stroke-linecap: butt; stroke-dashoffset: 0; stroke-linejoin: miter; stroke-miterlimit: 4; fill: rgb(228,197,144); fill-rule: evenodd; opacity: 1;" vector-effect="non-scaling-stroke"  transform=" translate(-18.87, -25)" d="M 32.5132 42.597 C 29.684 44.1297 26.4436 45 23 45 C 11.9543 45 3 36.0457 3 25 C 3 13.9543 11.9543 5 23 5 C 26.0521 5 28.9446 5.68368 31.5326 6.90625 C 31.3663 7.11885 31.209 7.34319 31.0619 7.57929 C 30.37 8.68974 29.8253 10.0318 29.47 11.4633 C 27.5111 10.5253 25.3169 10 23 10 C 14.7157 10 8 16.7157 8 25 C 8 33.2843 14.7157 40 23 40 C 27.2915 40 31.162 38.1978 33.8961 35.309 C 33.5961 36.4152 33.1892 37.6031 32.6373 38.9318 C 32.2262 39.809 32.1122 40.4488 32.1122 41.4602 C 32.1122 41.8663 32.2596 42.247 32.5132 42.597 Z M 29.0138 14.6134 C 28.8567 18.2765 30.0306 21.8663 33.1625 23.2555 C 34.135 24.128 34.7379 25.2124 34.7379 26.6199 C 34.7379 26.9224 34.7379 27.2186 34.7371 27.5099 C 33.5832 32.9324 28.7666 37 23 37 C 16.3726 37 11 31.6274 11 25 C 11 18.3726 16.3726 13 23 13 C 25.1914 13 27.2456 13.5874 29.0138 14.6134 Z" stroke-linecap="round" />
</g>
<g transform="matrix(8.22 0 0 8.22 380.69 248.68)"  >
<path style="stroke: none; stroke-width: 1; stroke-dasharray: none; stroke-linecap: butt; stroke-dashoffset: 0; stroke-linejoin: miter; stroke-miterlimit: 4; fill: rgb(228,197,144); fill-rule: nonzero; opacity: 1;" vector-effect="non-scaling-stroke"  transform=" translate(-38.88, -25)" d="M 41.7607 22.8781 C 46.7982 20.5576 46.5779 13.151 43.8104 8.53905 C 40.9996 3.85445 36.7943 3.78631 33.9427 8.53905 C 31.1901 13.126 30.9363 20.5491 35.9923 22.8781 C 36.9183 23.7408 37.6263 25.4349 37.6263 26.8266 C 37.6263 31.0162 37.8838 34.3087 35.7001 39.1394 C 35.3086 40.0068 35.1257 40.6631 35.1257 41.2062 C 35.1257 43.2981 36.8081 45 38.8765 45 C 40.9449 45 42.6273 43.2981 42.6273 41.2062 C 42.6273 40.6631 42.4445 40.0068 42.053 39.1394 C 39.8389 34.2417 40.1268 30.7222 40.1268 26.8266 C 40.1268 25.4349 40.8348 23.7408 41.7607 22.8781 Z" stroke-linecap="round" />
</g>
</svg>